<svg xmlns="http://www.w3.org/2000/svg" width="15.924" height="30.531" viewBox="0 0 15.924 30.531">
  <path id="icons8-facebook-f_2_" data-name="icons8-facebook-f (2)" d="M21.354,12.686H17.686V9.633c0-1.575.128-2.568,2.386-2.568H21.4a1.527,1.527,0,0,0,1.527-1.527V3.624A1.53,1.53,0,0,0,21.515,2.09Q20.131,2,18.744,2C14.6,2,11.58,4.53,11.58,9.173v3.513H8.527A1.527,1.527,0,0,0,7,14.212v3.053a1.527,1.527,0,0,0,1.527,1.527l3.053,0V31a1.527,1.527,0,0,0,1.527,1.527h3.053A1.527,1.527,0,0,0,17.686,31V18.788l3.319,0a1.526,1.526,0,0,0,1.516-1.353l.35-3.047A1.525,1.525,0,0,0,21.354,12.686Z" transform="translate(-7 -2)" fill="#fff"/>
</svg>
